<svg width="100%" height="80px" id="logo" viewBox="0 0 165 80" version="1.1" xmlns="http://www.w3.org/2000/svg">
    <path fill="#1D2C7C" d=" M 8.14 7.18 C 17.23 2.15 27.85 1.08 38.04 0.41 C 55.63 -0.33 73.23 2.01 90.40 5.71 C 109.80 10.14 128.91 16.52 146.36 26.21 C 138.58 25.90 130.77 26.45 123.01 25.93 C 100.07 13.28 74.24 5.86 48.09 4.27 C 37.57 3.78 26.82 3.89 16.62 6.82 C 11.92 8.21 7.18 10.28 3.85 13.99 C 1.81 16.49 1.10 19.74 0.00 22.69 L 0.00 18.00 C 1.08 13.44 3.97 9.38 8.14 7.18 Z"></path>
    <path fill="#1D2C7C" d=" M 18.64 32.97 C 20.82 31.54 22.95 29.98 25.34 28.91 C 30.79 28.59 36.28 28.85 41.74 28.84 C 41.74 29.70 41.74 31.40 41.74 32.26 C 37.10 32.17 32.47 32.33 27.84 32.20 C 24.74 34.03 21.64 35.88 18.70 37.95 C 18.70 36.29 18.68 34.63 18.64 32.97 Z"></path>
    <path fill="#1D2C7C" d=" M 44.12 28.84 C 47.57 28.81 51.01 28.80 54.46 28.79 C 54.42 34.57 54.44 40.35 54.43 46.13 C 51.23 43.72 47.57 41.98 44.34 39.62 C 43.93 36.04 44.29 32.43 44.12 28.84 Z"></path>
    <path fill="#1D2C7C" d=" M 66.48 40.99 C 66.35 36.93 66.43 32.87 66.38 28.80 C 69.74 28.80 73.10 28.79 76.47 28.78 C 76.45 32.42 76.44 36.05 76.50 39.68 C 70.66 43.49 64.61 46.96 58.71 50.70 C 56.51 52.36 53.63 51.55 51.08 51.77 C 48.82 50.42 46.57 49.04 44.35 47.64 C 44.35 45.98 44.34 44.32 44.35 42.66 C 47.60 44.67 50.84 46.71 54.06 48.79 C 58.15 46.11 62.46 43.78 66.48 40.99 Z"></path>
    <path fill="#1D2C7C" d=" M 81.27 28.87 C 89.64 28.82 98.00 28.88 106.37 28.83 C 108.67 30.18 110.95 31.57 113.17 33.07 C 113.13 35.25 113.12 37.44 113.11 39.63 C 109.64 41.76 106.18 43.91 102.75 46.10 C 102.75 44.07 102.75 42.05 102.72 40.02 C 99.93 40.07 97.14 40.09 94.34 40.07 C 94.31 38.90 94.29 37.73 94.27 36.57 C 97.11 36.35 99.97 36.30 102.82 36.34 C 102.79 34.95 102.76 33.57 102.71 32.19 C 98.63 32.29 94.53 31.97 90.47 32.35 C 87.27 33.93 84.40 36.09 81.33 37.90 C 81.31 34.89 81.30 31.88 81.27 28.87 Z"></path>
    <path fill="#1D2C7C" d=" M 117.53 28.71 C 120.86 28.77 124.19 28.78 127.52 28.73 C 127.45 34.46 127.58 40.20 127.43 45.93 C 124.15 43.72 120.70 41.78 117.44 39.56 C 117.59 35.94 117.62 32.32 117.53 28.71 Z"></path>
    <path fill="#1D2C7C" d=" M 136.77 28.89 C 140.16 28.87 143.56 28.87 146.95 28.88 C 146.89 34.57 146.94 40.25 146.92 45.94 C 143.55 45.95 140.18 45.96 136.81 45.97 C 136.77 40.28 136.82 34.58 136.77 28.89 Z"></path>
    <path fill="#1D2C7C" d=" M 18.79 40.63 C 22.17 38.67 25.44 36.52 28.79 34.52 C 28.65 40.34 28.77 46.16 28.71 51.98 C 25.36 51.85 22.02 51.84 18.68 51.96 C 18.83 48.19 18.74 44.41 18.79 40.63 Z"></path>
    <path fill="#1D2C7C" d=" M 81.48 40.49 C 84.88 38.57 88.17 36.49 91.54 34.53 C 91.50 39.15 91.47 43.76 91.48 48.38 C 95.58 48.19 99.69 48.52 103.79 48.23 C 107.00 46.63 109.89 44.45 113.04 42.73 C 112.99 44.37 112.94 46.02 112.89 47.66 C 110.55 48.97 108.46 50.87 105.89 51.67 C 97.73 51.74 89.57 51.52 81.42 51.76 C 81.38 48.01 81.38 44.25 81.48 40.49 Z"></path>
    <path fill="#1D2C7C" d=" M 67.25 48.51 C 70.27 46.46 73.50 44.72 76.51 42.65 C 76.49 45.71 76.46 48.77 76.38 51.83 C 73.06 51.60 69.74 51.60 66.42 51.80 C 66.45 50.66 65.98 49.18 67.25 48.51 Z"></path>
    <path fill="#1D2C7C" d=" M 117.48 42.64 C 120.67 44.41 123.53 46.78 126.88 48.27 C 135.42 48.39 143.98 48.40 152.52 48.21 C 150.52 50.84 148.41 53.39 146.00 55.64 C 146.09 54.65 146.29 52.67 146.38 51.68 C 138.99 51.65 131.60 51.60 124.21 51.73 C 122.06 50.41 119.81 49.23 117.80 47.70 C 117.46 46.03 117.55 44.32 117.48 42.64 Z"></path>
    <path fill="#1D2C7C" d=" M 18.59 53.84 C 25.06 53.99 31.53 53.91 38.01 53.85 C 39.79 53.92 41.73 53.68 43.33 54.64 C 56.32 62.12 70.54 67.24 85.03 70.92 C 102.79 75.23 121.29 77.34 139.52 75.17 C 146.80 74.01 154.52 72.30 160.16 67.22 C 163.25 64.78 164.00 60.76 164.17 57.05 L 165.00 60.34 L 165.00 62.65 C 163.91 66.76 161.26 70.38 157.60 72.54 C 149.88 77.18 140.72 78.43 131.92 79.37 C 113.59 80.79 95.15 78.65 77.21 74.92 C 56.86 70.54 36.87 63.89 18.59 53.84 Z"></path>
</svg>